<svg fill="#000000" xmlns="http://www.w3.org/2000/svg"  viewBox="0 0 50 50" width="50px" height="50px"><path d="M 5 7 C 2.242188 7 0 9.242188 0 12 L 0 38 C 0 40.757813 2.242188 43 5 43 L 45 43 C 47.757813 43 50 40.757813 50 38 L 50 12 C 50 9.242188 47.757813 7 45 7 Z M 29.6875 19.40625 C 31.050781 19.40625 32.46875 19.96875 32.46875 19.96875 L 31.96875 22.40625 C 31.96875 22.40625 30.890625 21.6875 29.9375 21.6875 C 28.46875 21.6875 27.9375 22.167969 27.9375 22.8125 C 27.9375 24.074219 32.03125 24.296875 32.03125 27.125 C 32.03125 29.476563 29.113281 31.09375 27 31.09375 C 24.886719 31.09375 23.78125 30.46875 23.78125 30.46875 L 24.3125 28.09375 C 24.3125 28.09375 25.417969 28.75 27.125 28.75 C 28.828125 28.75 29.0625 28.023438 29.0625 27.71875 C 29.0625 25.914063 25 26.417969 25 22.90625 C 25 20.964844 26.585938 19.40625 29.6875 19.40625 Z M 16.46875 19.625 L 19.625 19.625 L 15.125 30.75 L 11.875 30.75 L 9.5 21.75 C 9.5 21.75 11.996094 23.023438 13.53125 26.46875 C 13.597656 26.886719 13.78125 27.5625 13.78125 27.5625 Z M 20.78125 19.625 L 23.78125 19.625 L 22 30.75 L 19.03125 30.75 Z M 36.8125 19.625 L 39.90625 19.625 L 42.1875 30.75 L 39.5 30.75 L 39.1875 29.15625 L 35.5 29.15625 L 34.90625 30.75 L 31.96875 30.75 Z M 6.25 19.65625 L 10.8125 19.65625 C 11.976563 19.65625 12.40625 20.75 12.40625 20.75 L 13.40625 25.8125 C 12.054688 21.453125 6.25 19.65625 6.25 19.65625 Z M 37.9375 22.84375 L 36.3125 27.03125 L 38.75 27.03125 Z"/></svg>